<?xml version="1.0" standalone="no"?>
<!DOCTYPE svg PUBLIC "-//W3C//DTD SVG 20010904//EN"
 "http://www.w3.org/TR/2001/REC-SVG-20010904/DTD/svg10.dtd">
<svg version="1.0" xmlns="http://www.w3.org/2000/svg"
 width="826.000000pt" height="826.000000pt" viewBox="0 0 826.000000 826.000000"
 preserveAspectRatio="xMidYMid meet">

<g transform="matrix(0.254938, 0, 0, -0.254938, -639.893982, 1465.702759)" fill="#000000" stroke="none">
    <path d="M3870 5735 c-493 -83 -917 -380 -1158 -810 -140 -250 -202 -493 -202
-795 0 -302 62 -545 202 -795 242 -433 667 -729 1163 -810 118 -20 392 -20
510 0 496 81 921 377 1163 810 140 250 202 493 202 795 0 302 -62 545 -202
795 -242 433 -667 729 -1163 810 -111 18 -408 18 -515 0z m368 -677 c16 -16
15 -78 -2 -97 -13 -14 -8 -24 42 -83 85 -99 122 -166 129 -231 8 -78 -18 -155
-74 -217 -37 -41 -42 -52 -34 -69 6 -11 11 -28 11 -39 0 -11 9 -22 20 -25 13
-3 22 -17 26 -36 5 -24 12 -31 30 -31 40 0 59 -63 28 -94 -11 -12 -35 -16 -86
-16 l-71 0 6 -91 c4 -69 12 -104 31 -143 36 -73 81 -124 114 -128 36 -4 44
-52 13 -74 -27 -19 -19 -37 39 -99 26 -27 53 -60 59 -72 14 -28 14 -88 0 -114
-8 -16 -7 -25 5 -38 19 -21 22 -121 4 -139 -17 -17 -769 -17 -786 0 -18 18
-15 118 4 139 12 13 13 22 5 38 -15 28 -14 87 3 119 8 15 35 46 60 70 51 47
57 74 25 108 -17 18 -19 26 -10 43 7 12 22 21 35 21 30 0 81 57 113 127 17 38
26 78 30 143 l6 90 -68 0 c-77 0 -105 16 -105 60 0 31 16 50 43 50 12 0 23 11
30 30 6 17 19 33 29 36 11 3 18 15 18 29 0 13 6 30 14 37 11 11 6 22 -35 66
-73 80 -97 179 -64 271 17 51 85 151 102 151 6 0 38 -44 70 -97 58 -96 84
-120 97 -88 4 11 -16 53 -54 115 -74 122 -76 127 -56 149 15 16 15 19 1 31
-18 15 -20 81 -3 98 16 16 190 16 206 0z" style="fill: rgb(255, 204, 92);"></path>
  </g>
</svg>

